<?xml version="1.0" encoding="UTF-8"?>
<svg id="Layer_1" data-name="Layer 1" xmlns="http://www.w3.org/2000/svg" viewBox="0 0 350.58 315.34">
  <defs>
    <style>
      .cls-1 {
        fill: #25aff4;
      }
    </style>
  </defs>
  <path class="cls-1" d="M349.45,151.37c-.64-.24-10.96-2.28-22.93-4.53-11.97-2.23-22.1-4.45-22.51-4.89-1.23-1.32-14.01-31.99-14.01-33.59,0-.8,5.52-9.5,12.27-19.31,6.75-9.81,12.46-18.64,12.72-19.56.33-1.27-3.76-5.94-15.76-17.94-8.92-8.93-16.62-16.23-17.14-16.23s-3.04,1.43-5.6,3.19c-2.56,1.75-11.15,7.63-19.06,13.05s-14.94,9.86-15.62,9.86c-1.79,0-31.36-12.13-32.65-13.38-.6-.6-2.63-9.56-4.5-19.93-1.87-10.36-3.9-20.85-4.5-23.31l-1.1-4.47-21.91-.3c-12.05-.09-22.84,0-23.97.3-1.49.36-2.22,1.45-2.67,3.99-3.77,21.61-8.19,42.86-9.09,43.74-1.92,1.87-31.44,13.59-33.09,13.13-.86-.24-9.96-6.16-20.18-13.15-10.22-7-19.05-12.72-19.6-12.72s-8.29,7.3-17.21,16.23c-12.08,12.09-16.09,16.67-15.74,17.94.27.94,5.99,9.67,12.72,19.38s12.25,18.48,12.25,19.47-3.02,8.95-6.7,17.65c-4.77,11.26-7.27,16.06-8.63,16.61-1.05.42-11.37,2.53-22.9,4.67-11.54,2.14-21.29,4.37-21.67,4.95-.38.58-.69,11.18-.69,23.56,0,16.91.27,22.74,1.15,23.42.64.5,9.97,2.47,20.74,4.4,10.77,1.9,20.62,3.98,21.89,4.56,1.84.86,3.66,4.43,9.07,17.87,3.73,9.23,6.78,17.43,6.78,18.21s-5.44,9.36-12.11,19.05-12.13,18.31-12.13,19.12,7.3,8.76,16.23,17.63h0c15.41,15.3,16.34,16.06,18.42,14.96,1.21-.64,9.39-6.13,18.2-12.2,8.81-6.07,16.62-11.04,17.38-11.04s5.02,1.95,9.47,4.31c5.65,3.02,9.07,3.33,9.07,3.33l14.34,1.6V101.57c0-5.43,4.4-9.83,9.83-9.83h53.88c5.43,0,9.83,4.4,9.83,9.83v200.39l14.64-2.2c.47.28,4.45-1.4,8.85-3.74,4.4-2.33,8.63-4.26,9.4-4.26s8.63,4.99,17.49,11.09c8.85,6.1,17.03,11.59,18.18,12.2,1.95,1.04,3.16.05,18.32-15.02,8.93-8.87,16.23-16.84,16.23-17.71s-5.46-9.56-12.13-19.33c-6.67-9.77-12.11-18.31-12.08-18.97.03-.68,3.1-8.78,6.84-18.01,5.32-13.13,7.28-17.02,9.04-17.87,1.24-.6,11.06-2.66,21.83-4.56,10.77-1.92,20.11-3.9,20.74-4.4.88-.69,1.16-6.67,1.16-24.14s-.28-23.32-1.16-23.67h.03Z"/>
  <path class="cls-1" d="M190.58,134.45h-10.08c-.28,0-.5-.22-.5-.5v-10.08c0-.28-.22-.5-.5-.5h-8.35c-.28,0-.5.22-.5.5v10.08c0,.28-.22.5-.5.5h-10.08c-.28,0-.5.22-.5.5v8.35c0,.28.22.5.5.5h10.08c.28,0,.5.22.5.5v10.08c0,.28.22.5.5.5h8.35c.28,0,.5-.22.5-.5v-10.08c0-.28.22-.5.5-.5h10.08c.28,0,.5-.22.5-.5v-8.35c0-.28-.22-.5-.5-.5Z"/>
  <circle class="cls-1" cx="175.31" cy="185" r="10.9"/>
  <path class="cls-1" d="M157.68,107.95c0,2.53-2.06,4.59-4.59,4.59s-4.59-2.06-4.59-4.59,2.06-4.59,4.59-4.59,4.59,2.06,4.59,4.59Z"/>
  <g>
    <path class="cls-1" d="M179.82,211.47c0,2.53-2.06,4.59-4.59,4.59s-4.59-2.06-4.59-4.59,2.06-4.59,4.59-4.59,4.59,2.06,4.59,4.59Z"/>
    <path class="cls-1" d="M195.67,211.47c0,2.53-2.06,4.59-4.59,4.59s-4.59-2.06-4.59-4.59,2.06-4.59,4.59-4.59,4.59,2.06,4.59,4.59Z"/>
    <path class="cls-1" d="M164.14,211.47c0,2.53-2.06,4.59-4.59,4.59s-4.59-2.06-4.59-4.59,2.06-4.59,4.59-4.59,4.59,2.06,4.59,4.59Z"/>
  </g>
  <circle class="cls-1" cx="175.31" cy="264.37" r="5.99"/>
  <circle class="cls-1" cx="175.31" cy="286.53" r="5.99"/>
</svg>