<?xml version="1.0" encoding="UTF-8"?>
<svg id="Layer_1" data-name="Layer 1" xmlns="http://www.w3.org/2000/svg" viewBox="0 0 349.93 288.01">
  <defs>
    <style>
      .cls-1 {
        fill: #25aff4;
      }
    </style>
  </defs>
  <g>
    <path class="cls-1" d="M0,247.22c0-3,.4-5.83,1.2-8.5.8-2.66,1.99-5.16,3.56-7.48,2.7-3.93,6.09-6.96,10.17-9.1s8.53-3.21,13.36-3.21c3.63,0,7.12.7,10.49,2.1,3.36,1.4,6.37,3.41,9.02,6.04,2.73,2.73,4.8,5.79,6.23,9.19s2.14,6.98,2.14,10.73-.67,7.57-2.01,10.99c-1.34,3.43-3.31,6.47-5.91,9.12-2.63,2.78-5.68,4.91-9.17,6.4-3.49,1.49-7.13,2.23-10.94,2.23-4.08,0-7.83-.73-11.26-2.18-3.43-1.45-6.47-3.6-9.12-6.45-2.55-2.7-4.48-5.73-5.8-9.1-1.31-3.36-1.97-6.96-1.97-10.79h0ZM11.23,246.85c0,2.35.39,4.54,1.16,6.56.77,2.03,1.93,3.88,3.45,5.55,1.68,1.83,3.58,3.23,5.7,4.22,2.13.99,4.33,1.48,6.6,1.48,4.78,0,8.78-1.7,12.02-5.1s4.86-7.64,4.86-12.72c0-4.65-1.63-8.62-4.9-11.91-3.26-3.29-7.18-4.93-11.76-4.93s-8.83,1.64-12.16,4.91c-3.33,3.28-4.99,7.25-4.99,11.93h.02Z"/>
    <path class="cls-1" d="M67.18,271.35v16.66h-9.45v-54.63h9.45v3.45c1.93-1.53,3.94-2.66,6.04-3.39,2.1-.74,4.36-1.11,6.79-1.11,2.6,0,5.05.41,7.35,1.22,2.3.81,4.36,2.02,6.19,3.62,2.48,2.15,4.38,4.69,5.72,7.62s2.01,6.04,2.01,9.34c0,3.08-.61,6.02-1.82,8.82s-2.93,5.22-5.16,7.24c-1.9,1.8-4.07,3.18-6.51,4.13s-5.01,1.43-7.71,1.43-4.98-.36-7.07-1.07c-2.09-.71-4.03-1.82-5.83-3.32h0ZM67.56,253.83c0,3.53,1.14,6.47,3.41,8.84,2.28,2.36,5.09,3.54,8.44,3.54s6.12-1.2,8.46-3.6,3.51-5.28,3.51-8.63-1.18-6.37-3.53-8.67-5.31-3.45-8.89-3.45c-3.15,0-5.84,1.16-8.07,3.47-2.23,2.31-3.34,5.15-3.34,8.5h0Z"/>
    <path class="cls-1" d="M111.13,257.05c.32,2.98,1.51,5.32,3.55,7.03s4.67,2.57,7.9,2.57c2.15,0,4.08-.45,5.8-1.35,1.71-.9,3.07-2.16,4.07-3.79h10.36c-1.75,4.5-4.37,8-7.86,10.49s-7.52,3.73-12.1,3.73c-3.08,0-5.91-.54-8.5-1.63-2.59-1.09-4.91-2.69-6.96-4.82-1.95-2.03-3.46-4.37-4.54-7.03s-1.61-5.4-1.61-8.2.49-5.58,1.48-8.12c.99-2.54,2.44-4.82,4.37-6.85,2.1-2.23,4.48-3.94,7.13-5.14s5.39-1.8,8.22-1.8c3.58,0,6.92.81,10.02,2.44s5.74,3.91,7.92,6.87c1.33,1.78,2.31,3.76,2.95,5.96.64,2.2.96,4.73.96,7.58,0,.22,0,.57-.04,1.03-.03.46-.04.81-.04,1.03h-33.08ZM133.9,249.43c-.83-2.75-2.21-4.85-4.15-6.28s-4.38-2.16-7.33-2.16c-2.55,0-4.84.78-6.87,2.33-2.03,1.55-3.39,3.59-4.09,6.12h22.44Z"/>
    <path class="cls-1" d="M155.42,233.38v4.69c1.4-1.88,3.01-3.26,4.82-4.16,1.81-.9,3.88-1.35,6.21-1.35,2.98,0,5.57.56,7.79,1.69,2.21,1.13,4.06,2.81,5.53,5.06.95,1.5,1.63,3.21,2.04,5.12.41,1.91.62,4.71.62,8.38v21.83h-9.6v-18.27c0-5.53-.64-9.32-1.91-11.37s-3.48-3.08-6.6-3.08-5.5,1.13-6.9,3.39-2.1,6.15-2.1,11.65v17.67h-9.27v-41.27h9.38v.02Z"/>
    <path class="cls-1" d="M197.41,274.65h-10.58v-54.62h14.14l13.88,39.73,13.84-39.73h14.14v54.62h-10.54l.37-39.65-13.81,39.65h-8.07l-13.84-39.65.45,39.65h.02Z"/>
    <path class="cls-1" d="M244.93,253.83c0-2.9.53-5.66,1.59-8.27s2.61-4.93,4.63-6.96,4.41-3.67,7.02-4.78c2.6-1.11,5.3-1.67,8.1-1.67,2.98,0,5.72.49,8.23,1.48s4.82,2.47,6.92,4.45c2.15,2.08,3.81,4.47,4.99,7.18,1.18,2.71,1.76,5.5,1.76,8.35,0,3.15-.51,6.03-1.54,8.63s-2.56,4.95-4.61,7.05c-2.05,2.13-4.39,3.73-7.02,4.82-2.63,1.09-5.48,1.63-8.55,1.63s-5.93-.55-8.48-1.65c-2.55-1.1-4.88-2.75-6.98-4.95-2-2.15-3.51-4.52-4.54-7.11s-1.54-5.32-1.54-8.2h.02ZM254.83,253.76c0,3.83,1.05,6.86,3.15,9.1,2.1,2.24,4.95,3.36,8.55,3.36s6.38-1.14,8.5-3.43c2.11-2.29,3.17-5.37,3.17-9.25,0-3.48-1.11-6.33-3.32-8.57-2.21-2.24-5-3.36-8.35-3.36s-6.27,1.13-8.44,3.39c-2.18,2.26-3.26,5.18-3.26,8.76h0Z"/>
    <path class="cls-1" d="M292.97,274.65v-32.71h-6.3v-8.55h6.3v-13.36h9.6v13.36h6.34v8.55h-6.34v32.71h-9.6Z"/>
    <path class="cls-1" d="M316.77,257.05c.32,2.98,1.51,5.32,3.55,7.03,2.04,1.71,4.67,2.57,7.9,2.57,2.15,0,4.08-.45,5.8-1.35,1.71-.9,3.07-2.16,4.07-3.79h10.36c-1.75,4.5-4.37,8-7.86,10.49s-7.52,3.73-12.1,3.73c-3.08,0-5.91-.54-8.5-1.63s-4.91-2.69-6.96-4.82c-1.95-2.03-3.46-4.37-4.54-7.03-1.08-2.66-1.61-5.4-1.61-8.2s.49-5.58,1.48-8.12c.99-2.54,2.44-4.82,4.37-6.85,2.1-2.23,4.48-3.94,7.13-5.14s5.39-1.8,8.22-1.8c3.58,0,6.92.81,10.02,2.44,3.1,1.63,5.74,3.91,7.92,6.87,1.33,1.78,2.31,3.76,2.95,5.96.64,2.2.96,4.73.96,7.58,0,.22-.01.57-.04,1.03-.03.46-.04.81-.04,1.03h-33.08ZM339.54,249.43c-.83-2.75-2.21-4.85-4.15-6.28s-4.38-2.16-7.33-2.16c-2.55,0-4.84.78-6.87,2.33s-3.39,3.59-4.09,6.12h22.44,0Z"/>
  </g>
  <g>
    <path class="cls-1" d="M284.62,96.26c-.41-.15-6.97-1.45-14.58-2.88-7.61-1.42-14.05-2.83-14.31-3.11-.78-.84-8.91-20.34-8.91-21.36,0-.51,3.51-6.04,7.8-12.28,4.29-6.24,7.92-11.85,8.09-12.44.21-.81-2.39-3.78-10.02-11.41-5.67-5.68-10.57-10.32-10.9-10.32s-1.93.91-3.56,2.03c-1.63,1.11-7.09,4.85-12.12,8.3s-9.5,6.27-9.93,6.27c-1.14,0-19.94-7.71-20.76-8.51-.38-.38-1.67-6.08-2.86-12.67s-2.48-13.26-2.86-14.82l-.7-2.84-13.93-.19c-7.66-.06-14.52,0-15.24.19-.95.23-1.41.92-1.7,2.54-2.4,13.74-5.21,27.25-5.78,27.81-1.22,1.19-19.99,8.64-21.04,8.35-.55-.15-6.33-3.92-12.83-8.36-6.5-4.45-12.11-8.09-12.46-8.09s-5.27,4.64-10.94,10.32c-7.68,7.69-10.23,10.6-10.01,11.41.17.6,3.81,6.15,8.09,12.32s7.79,11.75,7.79,12.38-1.92,5.69-4.26,11.22c-3.03,7.16-4.62,10.21-5.49,10.56-.67.27-7.23,1.61-14.56,2.97-7.34,1.36-13.54,2.78-13.78,3.15-.24.37-.44,7.11-.44,14.98,0,10.75.17,14.46.73,14.89.41.32,6.34,1.57,13.19,2.8,6.85,1.21,13.11,2.53,13.92,2.9,1.17.55,2.33,2.82,5.77,11.36,2.37,5.87,4.31,11.08,4.31,11.58s-3.46,5.95-7.7,12.11-7.71,11.64-7.71,12.16,4.64,5.57,10.32,11.21h0c9.8,9.73,10.39,10.21,11.71,9.51.77-.41,5.97-3.9,11.57-7.76s10.57-7.02,11.05-7.02,3.19,1.24,6.02,2.74c3.59,1.92,5.77,2.12,5.77,2.12l9.12,1.02v-126.82c0-3.45,2.8-6.25,6.25-6.25h34.26c3.45,0,6.25,2.8,6.25,6.25v127.43l9.31-1.4c.3.18,2.83-.89,5.63-2.38,2.8-1.48,5.49-2.71,5.98-2.71s5.49,3.17,11.12,7.05c5.63,3.88,10.83,7.37,11.56,7.76,1.24.66,2.01.03,11.65-9.55,5.68-5.64,10.32-10.71,10.32-11.26s-3.47-6.08-7.71-12.29c-4.24-6.21-7.7-11.64-7.68-12.06.02-.43,1.97-5.58,4.35-11.45,3.38-8.35,4.63-10.82,5.75-11.36.79-.38,7.03-1.69,13.88-2.9,6.85-1.22,12.79-2.48,13.19-2.8.56-.44.74-4.24.74-15.35s-.18-14.83-.74-15.05h.02Z"/>
    <path class="cls-1" d="M183.59,85.5h-6.41c-.18,0-.32-.14-.32-.32v-6.41c0-.18-.14-.32-.32-.32h-5.31c-.18,0-.32.14-.32.32v6.41c0,.18-.14.32-.32.32h-6.41c-.18,0-.32.14-.32.32v5.31c0,.18.14.32.32.32h6.41c.18,0,.32.14.32.32v6.41c0,.18.14.32.32.32h5.31c.18,0,.32-.14.32-.32v-6.41c0-.18.14-.32.32-.32h6.41c.18,0,.32-.14.32-.32v-5.31c0-.18-.14-.32-.32-.32Z"/>
    <circle class="cls-1" cx="173.88" cy="117.64" r="6.93"/>
    <path class="cls-1" d="M162.67,68.65c0,1.61-1.31,2.92-2.92,2.92s-2.92-1.31-2.92-2.92,1.31-2.92,2.92-2.92,2.92,1.31,2.92,2.92Z"/>
    <g>
      <path class="cls-1" d="M176.75,134.47c0,1.61-1.31,2.92-2.92,2.92s-2.92-1.31-2.92-2.92,1.31-2.92,2.92-2.92,2.92,1.31,2.92,2.92Z"/>
      <path class="cls-1" d="M186.83,134.47c0,1.61-1.31,2.92-2.92,2.92s-2.92-1.31-2.92-2.92,1.31-2.92,2.92-2.92,2.92,1.31,2.92,2.92Z"/>
      <path class="cls-1" d="M166.78,134.47c0,1.61-1.31,2.92-2.92,2.92s-2.92-1.31-2.92-2.92,1.31-2.92,2.92-2.92,2.92,1.31,2.92,2.92Z"/>
    </g>
    <circle class="cls-1" cx="173.88" cy="168.11" r="3.81"/>
    <circle class="cls-1" cx="173.88" cy="182.2" r="3.81"/>
  </g>
</svg>